<svg width="16" height="16" viewBox="0 0 16 16" fill="none" xmlns="http://www.w3.org/2000/svg">
<path fill-rule="evenodd" clip-rule="evenodd" d="M14.4336 2.36569C14.7461 2.05327 14.7461 1.54673 14.4336 1.23431C14.1212 0.921895 13.6147 0.921895 13.3023 1.23431L7.83462 6.70196L2.36697 1.23431C2.05455 0.921895 1.54802 0.921895 1.2356 1.23431C0.923184 1.54673 0.923184 2.05327 1.2356 2.36569L6.70325 7.83333L1.23431 13.3023C0.921895 13.6147 0.921895 14.1212 1.23431 14.4336C1.54673 14.7461 2.05327 14.7461 2.36569 14.4336L7.83462 8.9647L13.3036 14.4336C13.616 14.7461 14.1225 14.7461 14.4349 14.4336C14.7473 14.1212 14.7473 13.6147 14.4349 13.3023L8.96599 7.83333L14.4336 2.36569Z" fill="#FAFAFA"/>
</svg>
