<svg width="17" height="16" viewBox="0 0 17 16" fill="none" xmlns="http://www.w3.org/2000/svg">
<g clip-path="url(#clip0_24013_45452)">
<path fill-rule="evenodd" clip-rule="evenodd" d="M2.6148 2.07116C2.74451 1.94063 2.91942 1.86816 3.10081 1.86816H9.57934C9.76072 1.86816 9.93563 1.94063 10.0653 2.07116C10.1952 2.20184 10.269 2.38009 10.269 2.56694V3.29133C10.269 3.70554 10.6048 4.04133 11.019 4.04133C11.4332 4.04133 11.769 3.70554 11.769 3.29133V2.56694C11.769 1.98531 11.5395 1.42655 11.1293 1.01384C10.7191 0.600976 10.1616 0.368164 9.57934 0.368164H3.10081C2.51854 0.368164 1.96108 0.600976 1.5508 1.01384C1.14069 1.42655 0.911133 1.98531 0.911133 2.56694V9.08643C0.911133 9.66806 1.14069 10.2268 1.5508 10.6395C1.96108 11.0524 2.51854 11.2852 3.10081 11.2852H3.82064C4.23486 11.2852 4.57064 10.9494 4.57064 10.5352C4.57064 10.121 4.23486 9.78521 3.82064 9.78521H3.10081C2.91942 9.78521 2.74451 9.71274 2.6148 9.58222C2.48494 9.45153 2.41113 9.27328 2.41113 9.08643V2.56694C2.41113 2.38009 2.48494 2.20184 2.6148 2.07116ZM6.7312 6.91383C6.7312 6.52344 7.04443 6.21505 7.42087 6.21505H13.8994C14.2759 6.21505 14.5891 6.52344 14.5891 6.91383V13.4333C14.5891 13.8237 14.2759 14.1321 13.8994 14.1321H7.42087C7.04443 14.1321 6.7312 13.8237 6.7312 13.4333V6.91383ZM7.42087 4.71505C6.2071 4.71505 5.2312 5.70394 5.2312 6.91383V13.4333C5.2312 14.6432 6.2071 15.6321 7.42087 15.6321H13.8994C15.1132 15.6321 16.0891 14.6432 16.0891 13.4333V6.91383C16.0891 5.70394 15.1132 4.71505 13.8994 4.71505H7.42087Z" fill="#0057FF"/>
</g>
<defs>
<clipPath id="clip0_24013_45452">
<rect width="16" height="16" fill="white" transform="translate(0.5)"/>
</clipPath>
</defs>
</svg>
