<svg width="56" height="56" viewBox="0 0 56 56" fill="none" xmlns="http://www.w3.org/2000/svg">
  <g clip-path="url(#clip0_24013_45181)">
  <path d="M28 49C39.598 49 49 39.598 49 28C49 16.402 39.598 7 28 7C16.402 7 7 16.402 7 28C7 39.598 16.402 49 28 49Z" stroke="#0057FF" stroke-width="1.75" stroke-linecap="round" stroke-linejoin="round"/>
  <path fill-rule="evenodd" clip-rule="evenodd" d="M28.875 19.6875C28.875 19.2043 28.4832 18.8125 28 18.8125C27.5167 18.8125 27.125 19.2043 27.125 19.6875V27.125L19.6875 27.125C19.2043 27.125 18.8125 27.5167 18.8125 28C18.8125 28.4832 19.2043 28.875 19.6875 28.875L27.125 28.875V36.3125C27.125 36.7957 27.5167 37.1875 28 37.1875C28.4832 37.1875 28.875 36.7957 28.875 36.3125V28.875L36.3125 28.875C36.7957 28.875 37.1875 28.4832 37.1875 28C37.1875 27.5168 36.7957 27.125 36.3125 27.125L28.875 27.125V19.6875Z" fill="#0057FF"/>
  </g>
  <defs>
  <clipPath id="clip0_24013_45181">
  <rect width="56" height="56" fill="white"/>
  </clipPath>
  </defs>
  </svg>
  