<svg width="11" height="12" viewBox="0 0 11 12" fill="none" xmlns="http://www.w3.org/2000/svg">
  <path d="M3.69204 5.22608L3.70443 3.38835C3.70443 3.10191 3.97386 2.84814 4.25 2.84814H5.29114V1.66435H3.5C3.22386 1.66435 3 1.62248 3 1.34487C3 1.06726 3.22386 1 3.5 1H7.5C7.77614 1 8 1.10688 8 1.34487C8 1.58285 7.77614 1.66435 7.5 1.66435H5.82923V2.84814H6.75C7.02614 2.84814 7.25 3.08035 7.25 3.36679L7.25114 5.01199C7.25145 5.16815 7.37353 5.29468 7.52407 5.29488H10C10.2761 5.29488 10.5 5.52709 10.5 5.81353V8.40676C10.5 8.6932 10.2761 8.92541 10 8.92541H6.99999C6.1111 9.61694 4.88888 9.61694 3.99999 8.92541V10.4814C3.99999 10.7678 3.77614 11 3.5 11H0.999994C0.723852 11 0.5 10.7678 0.5 10.4814V7.36946C0.5 6.88098 0.500395 6.45368 0.501199 6.08756C0.501883 5.77702 0.743739 5.52508 1.04311 5.52306L3.4211 5.50701C3.57028 5.506 3.691 5.38083 3.69204 5.22608ZM1.13637 10.4336H3.37222V8.70784C3.37222 8.39536 3.61643 8.29826 3.91768 8.29826H4.06C4.19259 8.29846 4.32056 8.34874 4.42 8.43971C5.03774 9.00264 5.96227 9.00264 6.58001 8.43971C6.67945 8.34874 6.80741 8.29846 6.94 8.29826H9.86364V5.89942H6.96022C6.80985 5.89941 6.68786 5.77316 6.68751 5.61718C6.68707 5.41539 6.68671 5.10964 6.68646 4.69993V3.45605H4.35753V4.69993C4.35727 5.15661 4.35773 5.51561 4.35891 5.77694C4.35961 5.93308 4.23823 6.06029 4.0877 6.06115L1.41921 6.07644C1.27146 6.07729 1.15123 6.20001 1.14804 6.35323C1.14027 6.72685 1.13637 7.08131 1.13637 7.41662V10.4336Z" fill="#FAFAFA" stroke="#FAFAFA" stroke-width="0.24"/>
  </svg>
  