<svg width="56" height="56" viewBox="0 0 56 56" fill="none" xmlns="http://www.w3.org/2000/svg">
  <g clip-path="url(#clip0_24013_46132)">
  <path d="M28 36.75C32.8325 36.75 36.75 32.8325 36.75 28C36.75 23.1675 32.8325 19.25 28 19.25C23.1675 19.25 19.25 23.1675 19.25 28C19.25 32.8325 23.1675 36.75 28 36.75Z" stroke="#0057FF" stroke-width="1.75" stroke-linecap="round" stroke-linejoin="round"/>
  <path d="M28.4484 45.0866C28.1553 45.0866 27.86 45.0866 27.5734 45.0866L20.5625 49C17.8332 48.0819 15.3017 46.657 13.1009 44.8L13.0747 36.925C12.9194 36.68 12.7728 36.4328 12.6372 36.1791L5.66562 32.2088C5.1165 29.4313 5.1165 26.5731 5.66562 23.7956L12.6306 19.8363C12.7728 19.5847 12.9194 19.3353 13.0681 19.0903L13.1031 11.2153C15.3019 9.35297 17.8328 7.92279 20.5625 7L27.5625 10.9134C27.8556 10.9134 28.1509 10.9134 28.4375 10.9134L35.4375 7C38.1668 7.91806 40.6983 9.343 42.8991 11.2L42.9253 19.075C43.0806 19.32 43.2272 19.5672 43.3628 19.8209L50.33 23.7891C50.8791 26.5666 50.8791 29.4247 50.33 32.2022L43.365 36.1616C43.2228 36.4131 43.0763 36.6625 42.9275 36.9075L42.8925 44.7825C40.6952 46.6451 38.1659 48.0761 35.4375 49L28.4484 45.0866Z" stroke="#0057FF" stroke-width="1.75" stroke-linecap="round" stroke-linejoin="round"/>
  </g>
  <defs>
  <clipPath id="clip0_24013_46132">
  <rect width="56" height="56" fill="white"/>
  </clipPath>
  </defs>
  </svg>
  