<svg width="16" height="16" viewBox="0 0 16 16" fill="none" xmlns="http://www.w3.org/2000/svg">
  <path d="M5.66667 1.33325C5.85076 1.33325 6 1.4825 6 1.6666V2.33326C6 2.51736 5.85076 2.6666 5.66667 2.6666H4.66667C3.39767 2.6666 2.699 3.3366 2.66767 4.57892L2.66667 4.66659V11.6666C2.66667 12.8299 3.22367 13.3116 4.57334 13.3326L4.66667 13.3333H11.3333C12.7983 13.3333 13.3123 12.8009 13.3327 11.4206L13.3333 11.3333V10.1579C13.3333 9.97383 13.4826 9.82459 13.6667 9.82459H14.3333C14.5174 9.82459 14.6667 9.97383 14.6667 10.1579V11.3333C14.6667 13.4523 13.6307 14.6269 11.4453 14.6656L11.3333 14.6666H4.66667C2.60167 14.6666 1.376 13.6933 1.33434 11.7686L1.33334 11.6666V4.66658C1.33334 2.66625 2.58834 1.37758 4.56402 1.33425L4.66668 1.33325H5.66668H5.66667ZM14 1.33326C14.3489 1.33315 14.6388 1.60204 14.665 1.94993L14.6667 1.99993V6.33326C14.6667 6.51735 14.5174 6.66659 14.3333 6.66659H13.6667C13.4826 6.66659 13.3333 6.51735 13.3333 6.33326V3.60926L9.307 7.63593C9.17684 7.76606 8.96584 7.76606 8.83567 7.63593L8.36434 7.16426C8.23421 7.0341 8.23421 6.8231 8.36434 6.69293L12.39 2.6666H9.66668C9.48259 2.6666 9.33335 2.51736 9.33335 2.33327V2.33327V1.6666V1.6666C9.33335 1.48251 9.48259 1.33326 9.66668 1.33326H14H14Z" fill="#0057FF"/>
  </svg>
  