<svg width="12" height="12" viewBox="0 0 12 12" fill="none" xmlns="http://www.w3.org/2000/svg">
  <path d="M8.80866 5.46178C8.90001 5.49968 9.00055 5.50964 9.09756 5.49039C9.19457 5.47114 9.28369 5.42356 9.35366 5.35366L11.3537 3.35366C11.4001 3.30722 11.437 3.25207 11.4622 3.19138C11.4873 3.13068 11.5003 3.06561 11.5003 2.99991C11.5003 2.9342 11.4873 2.86913 11.4622 2.80843C11.437 2.74774 11.4001 2.69259 11.3537 2.64615L9.35365 0.646155C9.28373 0.576149 9.1946 0.528466 9.09756 0.50914C9.00052 0.489815 8.89992 0.499718 8.80851 0.537594C8.7171 0.57547 8.63898 0.639617 8.58405 0.721914C8.52911 0.804211 8.49983 0.900957 8.4999 0.999905L8.4999 2.49991L0.999905 2.49991C0.867297 2.49991 0.74012 2.55258 0.646352 2.64635C0.552584 2.74012 0.499905 2.8673 0.499905 2.99991C0.499905 3.13251 0.552584 3.25969 0.646352 3.35346C0.74012 3.44723 0.867297 3.49991 0.999905 3.49991L8.4999 3.49991L8.4999 4.99991C8.49992 5.0988 8.52927 5.19546 8.58423 5.27767C8.63918 5.35988 8.71729 5.42395 8.80866 5.46178ZM2.64616 11.3537L0.646156 9.35366C0.599667 9.30722 0.562788 9.25208 0.537626 9.19138C0.512464 9.13068 0.499512 9.06561 0.499512 8.99991C0.499512 8.9342 0.512464 8.86913 0.537626 8.80844C0.562788 8.74774 0.599667 8.69259 0.646155 8.64616L2.64616 6.64616C2.71608 6.57615 2.80521 6.52847 2.90225 6.50914C2.99929 6.48982 3.09989 6.49972 3.1913 6.53759C3.28271 6.57547 3.36083 6.63962 3.41577 6.72191C3.4707 6.80421 3.49998 6.90096 3.49991 6.99991L3.49991 8.49991L10.9999 8.49991C11.1325 8.49991 11.2597 8.55258 11.3535 8.64635C11.4472 8.74012 11.4999 8.8673 11.4999 8.99991C11.4999 9.13251 11.4472 9.25969 11.3535 9.35346C11.2597 9.44723 11.1325 9.49991 10.9999 9.49991L3.49991 9.49991L3.49991 10.9999C3.49998 11.0989 3.4707 11.1956 3.41577 11.2779C3.36083 11.3602 3.28271 11.4243 3.1913 11.4622C3.09989 11.5001 2.99929 11.51 2.90225 11.4907C2.80521 11.4713 2.71608 11.4237 2.64616 11.3537Z" fill="#CCCCCC"/>
  </svg>
  